<svg xmlns="http://www.w3.org/2000/svg" viewBox="0 0 64 96">
  <rect width="64" height="96" fill="transparent" />
  <rect x="0" y="0" width="14" height="14" fill="#910B08" />
  <rect x="16" y="0" width="14" height="14" fill="#910B08" />
  <rect x="32" y="0" width="14" height="14" fill="#910B08" />
  <rect x="48" y="0" width="14" height="14" fill="none" stroke="#000000" stroke-width="1.5" />

  <rect x="0" y="16" width="14" height="14" fill="#910B08" />
  <rect x="16" y="16" width="14" height="14" fill="#FFFFFF" />
  <rect x="32" y="16" width="14" height="14" fill="#FFFFFF" />
  <rect x="48" y="16" width="14" height="14" fill="#FFFFFF" />

  <rect x="0" y="32" width="14" height="14" fill="#910B08" />
  <rect x="16" y="32" width="14" height="14" fill="#910B08" />
  <rect x="32" y="32" width="14" height="14" fill="#910B08" />
  <rect x="48" y="32" width="14" height="14" fill="#FFFFFF" />

  <rect x="0" y="48" width="14" height="14" fill="none" stroke="#000000" stroke-width="1.5" />
  <rect x="16" y="48" width="14" height="14" fill="#FFFFFF" />
  <rect x="32" y="48" width="14" height="14" fill="#FFFFFF" />
  <rect x="48" y="48" width="14" height="14" fill="#FFFFFF" />

  <rect x="0" y="64" width="14" height="14" fill="#910B08" />
  <rect x="16" y="64" width="14" height="14" fill="#910B08" />
  <rect x="32" y="64" width="14" height="14" fill="#910B08" />
  <rect x="48" y="64" width="14" height="14" fill="#FFFFFF" />

  <rect x="0" y="80" width="14" height="14" fill="none" stroke="#000000" stroke-width="1.5" />
  <rect x="16" y="80" width="14" height="14" fill="#FFFFFF" />
  <rect x="32" y="80" width="14" height="14" fill="#FFFFFF" />
  <rect x="48" y="80" width="14" height="14" fill="#FFFFFF" />
</svg>
